<svg width="479" height="116" viewBox="0 0 479 116" fill="none" xmlns="http://www.w3.org/2000/svg">
<g clip-path="url(#clip0_149_2)">
<path d="M19.539 58.7832C19.539 55.4921 22.1565 52.7641 28.2023 52.7641C35.903 52.7641 39.3481 56.9176 39.3481 62.6552H54.9016C54.9016 47.1674 44.9886 38.4203 28.3543 38.4203C11.72 38.4203 1.3679 47.889 1.3679 60.508C1.3679 85.1652 38.6557 81.1525 38.6557 94.6339C38.6557 99.0867 34.9405 101.234 29.1649 101.234C20.7718 101.234 17.1916 96.7811 17.1916 90.058H0C0 107.693 12.1084 116.018 28.6245 116.018C45.1406 116.018 56.1344 107.13 56.1344 92.9267C56.1344 66.6855 19.539 71.4198 19.539 58.8008V58.7832Z" fill="black"/>
<path d="M157.663 38.561C139.086 38.561 128.768 47.5897 127.94 64.0807H143.494C144.592 57.78 148.577 54.612 156.16 54.612C164.958 54.612 168.538 58.9064 168.538 66.2279V78.2661C164.418 73.6726 158.085 71.3846 150.384 71.3846C147.615 71.3846 144.997 71.7014 142.548 72.2998C142.498 72.2998 142.447 72.2998 142.396 72.3174C140.353 72.775 138.529 73.5142 136.823 74.4293C136.773 74.4645 136.722 74.4821 136.671 74.5173C124.006 81.434 119.091 98.9282 97.1037 99.3506C87.444 99.5266 80.8072 94.2115 78.1052 84.8132C105.463 84.8132 123.837 75.0453 123.837 60.6311C123.837 47.8361 114.363 37.9626 94.4524 37.9626C72.2283 37.9626 57.2997 53.6792 57.2997 77.3333C57.2997 100.987 71.1306 115.402 91.1762 115.402C107.371 115.402 115.055 109.418 127.13 100.231C129.764 110.315 138.394 115.859 149.118 115.859C158.203 115.859 165.347 112.128 169.484 105.827L170.717 114.434H187.098V66.4039C187.098 48.4873 177.05 38.5962 157.663 38.5962V38.561ZM103.774 58.8712C110.192 74.7637 75.572 72.7398 75.572 72.7398C73.7144 56.7592 97.8468 44.2282 103.774 58.8712ZM156.143 101.375C149.675 101.375 145.267 98.5058 145.267 92.3459C145.267 89.3539 146.314 87.1188 148.189 85.5876C148.459 85.4116 148.712 85.218 148.966 85.0244C150.925 83.7748 153.593 83.1588 156.818 83.1588C163.979 83.1588 168.505 86.6084 168.505 92.0467C168.505 97.7842 163.556 101.375 156.126 101.375H156.143Z" fill="black"/>
<path d="M233.336 39.0011C221.785 38.1387 214.489 46.8858 211.467 62.092V40.0043H192.89V114.416H211.467V83.0181C211.467 65.5239 222.342 57.78 233.336 59.9272V39.0011Z" fill="black"/>
<path d="M269.239 55.6328C276.94 55.6328 281.584 60.2263 282.141 71.2614L299.383 72.4934C300.008 50.3881 286.431 38.2266 269.948 38.4202C247.657 38.6842 233.353 54.3304 233.353 78.0021C233.353 101.674 246.559 116 270.083 116C281.094 116 290.585 112.709 297.88 108.397V90.4803C289.217 95.3555 281.651 98.6466 273.123 98.6466C259.495 98.6466 252.487 90.1811 252.487 76.4181C252.487 62.6551 259.225 55.6328 269.273 55.6328H269.239Z" fill="black"/>
<path d="M344.845 38.2794C332.179 38.2794 324.901 46.0233 321.456 56.7768V14.0446H302.879V114.416H321.456V74.1301C321.456 63.2359 327.231 55.3512 336.452 55.3512C344.288 55.3512 347.733 61.0887 347.733 70.2582V114.416H366.309V63.2359C366.309 48.1881 358.743 38.297 344.845 38.297V38.2794Z" fill="black"/>
<path d="M435.835 40.0043H417.259V114.416H435.835V40.0043Z" fill="black"/>
<path d="M402.921 28.1068L413.392 23.6541L407.194 6.44153L395.626 11.1759C383.382 16.051 378.434 23.6541 378.434 35.9915V40.0043H369.906V56.4952H378.434V114.416H397.011V56.4952H412.834V40.0043H397.011V37.5579C397.011 31.8204 398.531 29.814 402.921 28.1068Z" fill="black"/>
<path d="M467.415 40.0042V22.3693H448.839V40.0042H440.311V56.4776H448.839V114.416H467.415V56.4776H479V40.0042H467.415Z" fill="black"/>
<path d="M426.547 22.3517C432.47 22.3517 437.271 17.3481 437.271 11.1758C437.271 5.0036 432.47 0 426.547 0C420.625 0 415.823 5.0036 415.823 11.1758C415.823 17.3481 420.625 22.3517 426.547 22.3517Z" fill="black"/>
</g>
<defs>
<clipPath id="clip0_149_2">
<rect width="479" height="116" fill="white"/>
</clipPath>
</defs>
</svg>
